# xmcd
#
# Track frame offsets:
#        150
#        24277
#        38882
#        53465
#        77100
#        92102
#        106807
#        122095
#
# Disc length: 1839 seconds
#
# Revision: 0
# Processed by: cddbd v1.5PL3 Copyright (c) Steve Scherf et al.
# Submitted via: ExactAudioCopy v0.95a4
#
DISCID=55072d08
DTITLE=Curtis Knight with Jimi Hendrix - Get That Feeling
DYEAR=1967
DGENRE=Rock
TTITLE0=Get That Feeling
TTITLE1=How Would You Feel
TTITLE2=Hush Now
TTITLE3=No Business
TTITLE4=Simon Says
TTITLE5=Gotta Have a New Dress
TTITLE6=Strange Things
TTITLE7=Welcome Home
EXTD=
EXTT0=
EXTT1=
EXTT2=
EXTT3=
EXTT4=
EXTT5=
EXTT6=
EXTT7=
PLAYORDER=
